<svg width="451" height="570" viewBox="0 0 451 570" fill="none" xmlns="http://www.w3.org/2000/svg">
<path d="M116.4 1.55848C108.8 4.49181 100.133 11.5585 93.8664 20.0918C81.9997 36.0918 78.2664 49.1585 79.5997 70.7585C79.9997 77.0251 79.9997 83.8251 79.4664 85.6918C78.6664 88.8918 78.1331 89.1585 71.1997 89.1585C56.1331 89.1585 48.1331 97.4251 47.1997 114.225C46.7997 119.158 46.3997 126.625 46.1331 130.758C45.5997 138.092 45.7331 138.492 48.6664 138.492C50.3997 138.492 53.7331 136.892 56.1331 134.892L60.3997 131.158L59.5997 135.292C59.1997 137.692 58.3997 141.025 57.8664 143.025C57.1997 145.825 57.4664 146.492 59.3331 146.492C62.3997 146.492 70.1331 141.692 72.6664 138.092C75.4664 134.092 75.9997 135.558 74.2664 142.092C73.4664 145.158 73.1997 148.092 73.5997 148.625C75.4664 150.358 87.1997 142.892 93.3331 136.225C103.866 124.758 105.066 111.025 96.5331 101.825L93.0664 98.0918L97.9997 93.4251C100.666 90.7585 105.2 83.9585 108.133 78.3585C110.933 72.6251 113.866 67.6918 114.666 67.1585C116.8 65.8251 119.466 67.9585 127.333 77.4251L134.666 86.3585V96.8918C134.666 108.225 138 123.692 142.666 133.425L145.466 139.425L142.133 145.558C140.4 149.025 138.133 156.092 137.333 161.425C135.733 170.758 136 174.092 139.466 185.958C140.133 188.358 139.066 189.292 132.933 192.225C99.7331 208.492 68.5331 241.025 71.0664 256.758C72.9331 267.958 90.5331 286.892 112.133 300.892C128.266 311.425 127.466 310.625 128.533 317.025C129.066 320.892 130.933 324.225 135.066 328.492L140.933 334.492L140.4 344.892C139.866 353.425 140.4 357.158 143.6 367.425L147.466 379.692L145.466 396.092C143.333 413.825 142.4 510.625 144.4 517.558C145.733 522.492 143.466 522.225 138 516.758C134.533 513.292 133.2 510.358 132 504.092C131.066 499.425 129.733 495.425 129.066 495.025C127.066 493.692 118.666 504.092 114 513.825C104.933 532.358 105.066 549.025 114.133 559.692C120.4 566.892 129.6 569.958 137.466 567.292C142.133 565.692 142.933 565.692 143.6 567.292C144.133 568.758 148.266 569.158 163.466 569.158H182.533L184.533 565.558C189.6 555.425 187.466 538.358 180 528.892L176 524.092L182.133 510.892C195.6 482.092 198.666 466.358 193.6 451.825L191.066 444.625L196.133 433.825C201.6 421.958 206.266 408.492 207.6 400.758C208 398.092 208.666 395.825 209.2 395.825C209.6 395.825 213.066 401.025 216.666 407.425C220.666 414.358 227.866 423.692 234.8 431.025L246.266 443.158L244.533 448.225C239.2 463.558 240.8 473.692 253.2 502.492L262.266 523.025L257.866 528.758C250.266 538.625 248.933 555.292 254.8 565.025L257.333 569.158H276.133C293.466 569.158 295.066 568.892 297.066 566.358C299.2 563.825 299.6 563.692 307.333 565.692C317.333 568.358 323.066 568.358 331.733 565.825C356.8 558.358 360.666 523.025 338.8 501.158C335.2 497.558 331.6 494.492 330.933 494.492C330.266 494.492 329.333 498.358 328.933 503.158C328.533 507.825 327.2 513.558 326 515.825C321.733 524.092 311.6 527.158 300 523.692L294.933 522.092L294.4 477.292L293.866 432.492L289.6 417.158C285.066 400.358 276.8 375.292 268.133 352.625L262.666 338.092L266.666 323.958C271.6 306.758 275.466 288.225 277.2 273.292C278 267.158 278.8 261.958 279.066 261.692C279.2 261.558 282.933 264.092 287.333 267.425C296.533 274.358 316.533 284.358 325.333 286.358C340.266 289.825 351.866 286.892 359.866 277.825C368.933 267.425 374.666 248.092 374.666 227.558C374.666 214.892 374.8 214.358 379.066 208.758C381.466 205.558 384.266 201.158 385.066 199.025C386.8 195.025 386.933 195.025 395.333 195.558C409.066 196.492 414.4 192.892 413.066 183.692C412.533 179.292 405.466 175.692 396 174.892C388.933 174.225 387.6 173.692 385.733 170.358C384.4 168.225 382.266 166.092 380.666 165.692C379.2 165.158 376.4 163.692 374.533 162.358C372.666 161.025 369.466 159.558 367.2 159.025C365.066 158.492 362.8 157.692 362 157.158C361.333 156.625 355.866 155.692 350 155.292C340.266 154.492 338.8 154.625 335.733 157.158C333.733 158.625 331.466 161.958 330.666 164.492C329.2 168.892 328.8 169.158 324.933 168.492C319.733 167.692 295.6 165.158 292.666 165.158C291.066 165.158 292 163.158 295.866 157.692C300.933 150.625 309.333 131.692 309.333 127.425C309.333 126.225 311.333 125.292 314.666 124.758C324.666 123.425 331.066 116.892 331.066 107.825C331.066 100.225 326.933 94.3585 319.066 90.4918C312.266 87.1585 312.133 87.0251 310.133 78.0918C303.6 49.4251 285.866 26.3585 260.666 13.8251C246.533 6.89181 235.466 4.75848 218 5.55848C203.2 6.35848 196.8 7.82515 184 13.2918L177.066 16.2251L169.466 12.2251C150.933 2.09181 127.2 -2.70819 116.4 1.55848ZM286.266 44.6251C295.066 55.1585 301.866 70.6251 304.533 86.6251C305.333 91.0251 306.133 91.8251 312.533 94.4918C321.6 98.0918 324.533 101.292 324.533 107.425C324.533 113.692 319.2 118.492 312.133 118.492C305.466 118.492 303.6 120.358 300.8 129.425C298.8 136.092 298.133 137.158 295.2 137.158C290.533 137.158 282.666 133.558 278.4 129.558C275.466 126.758 275.066 125.692 276.4 123.692C278.533 120.358 276.8 119.158 272.266 121.025C268.133 122.758 264 128.758 264 133.025C264 136.492 267.333 136.758 269.2 133.425C270.4 131.425 270.933 131.558 274.933 135.292C280.4 140.492 286.8 143.825 291.333 143.825C293.2 143.825 294.666 144.358 294.666 145.025C294.666 146.892 283.733 162.625 282 163.292C281.2 163.692 273.333 163.025 264.533 161.958C248.933 160.092 248.533 159.958 244.533 155.292C239.333 149.158 233.866 138.092 231.066 127.558C228.133 116.225 228.133 92.7585 231.2 81.2918C237.6 57.1585 253.066 39.9585 270.533 37.2918C278 36.0918 279.866 36.8918 286.266 44.6251ZM181.333 135.692C184.8 137.558 187.2 140.625 190.666 147.292C193.2 152.225 196.933 157.425 198.8 158.892C202.4 161.425 224.8 164.358 298 171.692C339.733 175.958 337.333 175.425 337.333 179.292C337.333 183.025 336.8 183.158 320 181.158C285.866 177.292 215.733 170.492 209.333 170.492C200.133 170.492 195.2 173.292 188.266 182.892C181.333 192.225 175.733 196.892 169.866 197.958C154.533 200.758 144 189.825 144 171.025C144 153.692 150 141.825 161.733 136.492C170 132.625 175.066 132.358 181.333 135.692ZM347.066 163.025C348.666 164.758 350.8 167.158 351.733 168.358C354.266 171.425 356 169.692 355.066 165.158C354 159.692 356.4 160.092 360.8 165.825C364.8 171.158 366.666 171.692 366.666 167.692C366.666 163.558 369.6 165.292 372.4 170.892C374.933 175.958 377.333 177.425 377.333 173.825C377.333 170.625 380 171.558 381.333 175.292C384.4 183.158 381.466 195.958 374.933 203.692C371.6 207.692 371.066 207.825 366.666 206.492C364.133 205.692 358.4 205.158 353.866 205.425C346.8 205.692 345.066 205.292 340.266 202.092C337.333 199.958 334 196.358 332.8 194.092C330.933 190.092 330.933 189.825 333.333 189.425C334.666 189.158 337.066 189.558 338.4 190.358C342.266 192.358 344 189.692 344 181.425C344 173.158 342.266 169.158 338.666 169.158C335.333 169.158 335.333 167.692 338.8 163.292C342.133 159.025 343.333 159.025 347.066 163.025ZM406.533 184.358C409.733 187.692 406.533 189.558 398 189.292C388.8 189.158 388.133 188.758 389.066 184.358C389.733 180.892 389.866 180.892 397.066 181.558C401.066 181.958 405.333 183.292 406.533 184.358ZM304.666 185.825C314.266 186.892 322.666 187.825 323.466 187.825C324.266 187.825 325.333 190.092 325.866 193.025C326.533 197.825 331.733 204.225 339.066 209.425C341.333 211.025 341.066 211.958 335.333 223.692L329.2 236.092L325.733 233.025C323.866 231.292 318.133 224.358 312.933 217.825C299.6 200.758 289.6 190.758 282.4 187.025C278.8 185.292 276 183.425 276 183.025C276 182.625 278.533 182.625 281.733 183.158C284.8 183.558 295.2 184.758 304.666 185.825ZM158 250.892C160.8 260.492 164 277.825 164 283.158C164 287.692 164 287.692 159.866 286.225C157.6 285.425 153.733 285.158 151.2 285.558C147.2 286.225 146.4 285.825 144.8 282.625C143.733 280.625 139.2 274.092 134.8 268.092L126.8 257.292L140.133 250.492C147.6 246.892 154.133 243.825 154.8 243.825C155.333 243.825 156.8 247.025 158 250.892ZM163.466 295.158C166.666 297.025 172 298.892 175.333 299.425C181.866 300.225 183.6 301.425 180.933 303.425C177.866 305.825 172.933 306.358 167.2 304.892C162.133 303.425 161.066 303.558 158.666 305.825C156.8 307.558 154.133 308.358 150.533 308.225C146.266 307.958 145.333 308.358 145.333 310.492C145.333 312.092 146.533 313.425 148.533 313.958L151.733 314.758L148.266 320.625C146.266 323.825 144 326.492 143.066 326.492C140.533 326.492 135.066 318.892 134.133 313.825C133.333 309.558 133.733 308.358 138.8 302.358C148.533 290.625 153.333 289.292 163.466 295.158ZM164 314.625C164 315.425 162.8 317.692 161.333 319.825C150.266 335.292 149.2 356.625 158.933 370.225C161.066 373.425 162.533 376.358 162.133 376.758C160.266 378.625 154.666 374.225 151.066 368.225C147.733 362.358 147.333 360.625 147.333 349.158C147.333 338.358 147.866 335.425 150.8 329.158C155.866 318.492 164 309.425 164 314.625ZM194 339.692C189.6 352.492 192.266 365.292 201.333 374.625C207.333 380.892 213.866 383.825 221.6 383.825C226 383.825 227.333 385.558 224.666 387.825C221.6 390.358 210.133 388.492 203.2 384.492C192.533 378.225 186.8 367.692 186.666 354.358C186.666 346.625 188.4 340.092 191.733 334.758C194.8 329.958 196.266 333.292 194 339.692Z" fill="#E7222A"/>
<path d="M269.067 73.4251C265.467 77.2918 265.067 78.3584 265.733 84.3584C266.4 92.4918 270.933 97.1584 278 97.1584C284.267 97.1584 286.533 96.0918 288.667 91.6918C296.4 76.7584 280.133 61.5584 269.067 73.4251ZM282 83.1584C282 85.9584 281.333 87.2918 279.467 87.5584C276 88.2251 274.133 85.9584 275.2 81.8251C275.867 79.1584 276.8 78.3584 279.067 78.7584C281.333 79.0251 282 80.0918 282 83.1584Z" fill="#E7222A"/>
<path d="M177.334 148.759C177.334 150.092 178.267 152.359 179.334 153.692C181.867 157.025 181.867 166.625 179.467 172.225C176.801 178.359 171.467 182.892 166.267 183.159C160.001 183.559 158.134 184.892 160.134 187.292C163.467 191.292 173.601 188.759 179.601 182.225C189.734 171.425 188.534 146.492 177.867 146.492C177.601 146.492 177.334 147.559 177.334 148.759Z" fill="#E7222A"/>
<path d="M391.999 220.492C391.999 221.559 393.066 222.492 394.399 222.492C399.199 222.492 413.466 230.759 416.133 235.025C423.466 247.025 413.466 265.292 388.933 284.359C368.933 299.959 338.399 316.225 312.933 325.025C300.266 329.425 296.799 331.825 299.599 334.625C302.666 337.692 345.066 320.625 367.599 307.159C383.466 297.559 405.199 280.225 412.266 271.292C423.199 257.692 426.933 242.759 422.133 233.292C419.733 228.759 412.133 223.692 403.466 220.759C395.333 217.959 391.999 217.959 391.999 220.492Z" fill="#E7222A"/>
<path d="M446.934 266.892C442.934 274.625 430.001 288.758 418.134 298.358C391.467 320.092 344.401 344.625 302.401 358.492C288.134 363.158 285.334 365.158 288.801 367.825C290.534 369.425 292.667 369.025 302.401 365.958C358.934 347.825 409.067 319.425 436.934 290.092C449.734 276.492 450.934 274.625 450.401 267.292L450.001 261.025L446.934 266.892Z" fill="#E7222A"/>
<path d="M22.666 291.425C22.666 294.225 32.7993 303.692 43.1993 310.759C59.066 321.692 81.7327 329.959 101.999 332.625C107.333 333.292 109.199 333.025 110.666 331.292C111.733 329.959 111.866 328.625 111.199 327.825C110.533 327.292 102.933 325.425 94.1327 323.959C69.066 319.425 50.7993 311.159 32.7993 296.225C28.1327 292.359 23.866 289.159 23.466 289.159C23.066 289.159 22.666 290.225 22.666 291.425Z" fill="#E7222A"/>
<path d="M0 309.692C0 312.759 17.6 327.959 29.2 335.025C51.2 348.225 81.7333 358.092 111.067 361.292C127.2 363.025 130.667 362.492 128.933 358.092C128.4 356.625 125.333 355.825 119.067 355.159C87.4667 352.225 60.2667 344.892 38.2667 333.559C27.2 327.825 9.86667 315.425 5.46667 310.092C3.33333 307.292 0 307.159 0 309.692Z" fill="#E7222A"/>
</svg>
