<svg width="667" height="584" viewBox="0 0 667 584" fill="none" xmlns="http://www.w3.org/2000/svg">
<g clip-path="url(#clip0_91_4)">
<path d="M387.334 2.79997C385.2 3.46664 376.934 3.86664 369.2 3.59997C355.6 3.3333 354.934 3.46664 350.267 7.06664C343.867 12 341.2 16 340.4 22.6666C340 25.6 339.6 28 339.467 28C339.467 28 336 27.0666 332 26C320.8 23.0666 307.467 23.3333 300.134 26.9333C294 29.8666 282.4 40.5333 275.6 49.3333L272 54L268.667 50.2666C265.734 46.9333 265.334 45.3333 265.334 36.5333C265.334 28.6666 264.667 25.2 262.134 20.2666C256.267 8.79997 250.4 5.3333 236.8 5.3333C225.467 5.3333 216.934 9.7333 208.534 19.7333C196.534 34.2666 193.867 46.1333 199.867 59.3333C207.2 75.8666 219.2 80 237.067 72.1333C249.334 66.8 252.667 66.1333 257.334 68C262.134 70 262.134 70.5333 258.534 77.6L255.734 82.9333L231.6 81.8666C218.267 81.2 202.134 80.8 195.867 80.9333C160.8 81.4666 122.4 102.133 100.267 132.267C85.6002 152.267 79.4669 172.267 79.6002 199.333C79.7336 220.667 83.4669 236.533 92.6669 255.333C97.8669 265.867 100.534 269.467 108.4 276.8C127.467 294.4 148.667 303.733 173.067 304.933C180.667 305.333 186.267 306.133 185.734 306.667C184.134 308.133 167.6 314.133 154.934 318C141.467 322 115.734 327.2 99.3336 329.333L87.2002 330.8L79.4669 326.133C69.2002 319.867 60.2669 317.2 47.0669 316.4C36.9336 315.733 36.1336 315.867 34.6669 318.533C33.4669 320.933 33.6002 322.133 35.3336 324.8C36.8002 327.2 36.9336 328 35.7336 328.133C34.8002 328.133 29.3336 328.4 23.6002 328.667C11.7336 329.2 5.33358 330.933 2.00025 334.667C-0.266418 337.2 -0.266418 337.467 1.86692 339.867C4.26692 342.533 13.3336 345.333 19.2002 345.333C23.3336 345.333 26.6669 349.867 26.6669 355.733C26.6669 358.667 27.7336 361.2 30.1336 363.6C32.0002 365.467 33.2002 367.867 32.8002 368.933C32.4002 370 33.4669 372.267 35.3336 374.133C39.3336 378.133 46.6669 378.4 53.3336 374.933C55.8669 373.467 61.4669 372 65.7336 371.6C70.8002 371.067 76.0002 369.467 80.8002 366.667L88.1336 362.533L98.5336 365.867C113.6 370.667 130 372.533 148 371.467C165.6 370.533 176.267 368.533 195.6 362.533L209.2 358.267L221.6 362.4C243.6 369.6 254.4 371.333 279.067 371.333C291.334 371.333 301.334 371.6 301.334 372C301.334 372.4 299.067 374.133 296.4 376C285.467 383.333 239.867 424.533 237.334 429.467C235.6 432.667 239.2 453.067 244.8 471.6C247.334 479.867 254 498.267 259.867 512.667L270.4 538.667H265.334C257.067 538.667 243.6 533.733 232.934 526.8C227.467 523.2 222.534 519.6 222.134 518.8C220.267 515.867 218.934 517.6 216.667 525.867C208.534 555.867 225.867 583.733 252.667 584C262 584 268.267 582 275.334 576.667C281.334 572 284 570.933 284 573.2C284 573.733 286.534 576 289.6 578C294 580.933 296.534 581.6 302.4 581.467C306.4 581.467 311.2 580.533 313.067 579.733C320.267 576.267 326.267 562.8 324.934 552.933C323.334 541.067 311.467 530.933 301.2 532.667C298.4 533.2 296 533.333 296 533.067C296 532.933 297.867 525.467 300 516.667C304.534 499.2 307.2 473.2 305.334 466.667C303.467 460.267 299.067 453.867 293.2 449.2C290.267 446.933 288.267 444.533 288.934 444C289.467 443.467 296.8 441.733 304.934 440.133C339.334 433.467 356 424.133 365.2 406.533L368.4 400.4L380.534 406C394.8 412.667 407.467 416.8 432 422.667C441.867 425.067 450.8 427.6 451.734 428.4C454.534 430.667 458.534 425.6 466.667 409.2C474.267 393.6 480 377.6 486.667 352.8C488.534 345.467 490.8 339.333 491.6 339.067C492.267 338.8 495.467 341.067 498.534 344.267C504.534 350.133 511.467 362.533 515.2 374.267C516.534 378.133 518.267 381.333 519.2 381.333C521.867 381.333 527.2 374.667 532.8 364.667C537.867 355.333 538 355.333 538 340C538 322.133 536.8 318.533 526.934 308.667C519.334 301.067 514.534 298.4 506.667 297.467L500.667 296.667L499.2 289.6C497.067 280.267 494.667 276.933 487.334 273.333C479.334 269.467 472.8 270.267 464.8 276C457.467 281.333 454 287.867 454 296.667C454 304.533 457.2 309.6 465.334 314.667C468.267 316.533 470.667 318.4 470.667 318.8C470.667 319.333 466 322.533 460.4 326C439.734 338.667 436.134 344.4 436 363.867V376.533L425.067 359.867C412.667 341.2 398.4 326 388.934 321.467C379.867 317.067 368 317.867 355.867 323.6L347.067 327.733L344.267 317.467C340.134 302 337.867 280 339.734 273.733C342.534 264.4 343.067 264.133 365.334 260C389.467 255.467 398.667 252.533 407.867 246.4C415.734 241.333 418.667 234.8 418.667 222.8C418.667 212 416.934 206.933 406.4 185.067C396 163.6 395.867 162.933 404.534 159.333C407.867 157.867 408.934 156.267 410.934 149.2C414.267 136.8 414 126.667 410.134 126.667C409.334 126.667 408 125.333 407.334 123.733C406.534 122 404 119.467 401.467 118C398.934 116.533 394.934 113.333 392.534 110.933C388.4 106.667 387.867 106.4 379.867 106.933L371.6 107.333L369.734 102C367.334 95.0666 363.067 90.6666 358.534 90.6666C354.267 90.6666 353.334 92.5333 353.334 101.467C353.334 107.467 353.067 108 351.067 106.667C349.734 105.867 341.467 100.4 332.667 94.6666L316.667 84.2666L317.067 77.7333C318.4 54.5333 326 41.3333 338.4 41.3333C342 41.3333 342.667 41.8666 342.667 44.4C342.667 47.8666 347.867 53.3333 354.267 56.5333C360.667 59.7333 372.934 59.3333 378.934 55.6C389.067 49.4666 399.6 37.4666 402 29.6C403.067 25.7333 400.934 25.7333 393.067 30C382.8 35.4666 381.6 34.2666 389.2 25.8666C398.267 16 398.4 12.5333 389.734 14.9333C387.2 15.6 384.8 15.8666 384.4 15.4666C384 15.0666 385.867 12.8 388.534 10.2666C391.2 7.7333 393.334 4.66664 393.334 3.46664C393.334 1.06664 393.067 1.06664 387.334 2.79997ZM249.867 14.4C256.667 18.4 259.334 24.5333 259.467 36.9333C259.467 44 260.134 48.6666 261.467 50.5333C262.534 52.1333 280.4 65.0666 301.334 79.4666C354.267 116 365.6 123.467 369.067 124.533C370.667 125.067 372.934 127.333 374 129.467C375.2 131.733 377.2 133.333 378.667 133.333C382.134 133.333 383.067 131.333 380.667 129.333C377.6 126.8 378.267 124.267 382.667 122C388.4 119.067 397.734 119.333 400.667 122.667C403.067 125.333 402.934 125.333 399.467 125.333C394.4 125.333 387.067 128.667 385.467 131.733C381.867 138.533 385.334 144.267 392.8 143.733C398.134 143.467 404.4 147.6 405.067 151.867C405.734 155.733 400.934 155.6 396.8 151.6C392.4 147.333 370.4 134.133 367.734 134.267C366.534 134.4 364.934 132.8 364 130.533C362 125.733 356.934 122 350.8 120.667C348.267 120.133 337.467 113.6 326.8 106.133C294.4 83.6 266.4 65.6 259.734 63.0666C252.8 60.5333 254 60.4 232.534 68C225.734 70.4 223.6 70.6666 219.067 69.4666C209.467 66.9333 202.667 57.4666 202.667 46.9333C202.667 38.6666 211.067 23.3333 218.267 18.1333C229.067 10.4 240.667 9.06664 249.867 14.4ZM365.2 103.733C367.467 110.133 367.467 110.8 365.334 112.667C363.334 114.533 362.934 114.4 361.334 111.067C358.534 104.933 357.334 99.6 358.134 97.0666C359.334 93.0666 362.667 96.2666 365.2 103.733ZM318.4 107.733C320.4 109.2 325.734 112.267 330.4 114.667C338.534 118.933 342.667 123.733 342.667 128.533C342.667 129.733 343.867 132.533 345.334 134.933C346.8 137.333 348 140.267 348 141.467C348 145.2 356 159.867 358.534 160.667C360.534 161.333 361.067 164.133 362.534 182.133C363.334 193.467 364.4 204.533 364.934 206.8L365.734 210.667H350.4C322.667 210.667 304 217.6 286.8 234.533C281.067 240.133 274.934 246.8 272.934 249.333L269.467 254V250C269.334 247.733 270.534 244.133 272 241.733C277.067 233.467 279.2 218.533 279.334 190.4L279.6 164L285.867 159.2C293.467 153.333 301.334 143.6 305.867 134.4C309.467 126.933 313.334 113.467 313.334 108.4C313.334 104.667 313.867 104.667 318.4 107.733ZM387.867 112C390.267 113.2 372.667 121.867 369.867 120.8C366.8 119.6 369.734 115.2 375.734 112.133C380.4 109.6 383.467 109.6 387.867 112ZM207.334 116.533C230.267 122.667 252.267 141.6 261.2 163.2C268 179.467 269.867 189.333 269.867 208.667C269.867 228.533 267.734 238.267 260.4 252.133C247.867 276.267 225.067 294 200 299.467C157.2 308.667 111.334 281.733 97.8669 239.467C92.9336 224 92.0002 203.067 95.7336 188.4C102.667 161.067 121.467 136 143.334 125.067C151.067 121.2 161.067 117.733 169.467 116.133C178.667 114.267 200 114.533 207.334 116.533ZM357.334 130.933C359.467 133.867 361.334 137.733 361.334 139.467C361.334 144.267 362.8 146.667 365.6 146.667C367.867 146.667 368.267 146 367.734 142.667L367.2 138.8L371.867 141.6C374.534 143.2 381.6 147.733 387.734 151.467L398.934 158.533L395.334 160.8C392.534 162.667 390 162.933 381.2 162.267C367.467 161.2 362.4 158.667 358.934 151.6C352.267 137.733 348 128.267 348 126.8C348 123.2 353.6 125.6 357.334 130.933ZM408.8 134.133C409.867 138.133 408 144.533 406 144.267C405.334 144.267 404.267 142.8 403.867 141.067C403.067 137.867 400.934 137.467 394.267 139.067C389.6 140.267 388 137.067 391.334 133.333C393.2 131.333 395.467 130.667 400.8 130.667C407.467 130.667 408 130.933 408.8 134.133ZM66.0002 325.2C74.6669 329.067 78.2669 332.533 82.1336 340.667C85.8669 348.667 86.2669 356.267 83.0669 359.467C80.0002 362.533 71.3336 366.133 64.5336 367.333C59.7336 368.133 58.6669 367.733 56.8002 365.067C55.6002 363.467 54.6669 360.4 54.6669 358.4C54.6669 356.4 54.0002 354.4 53.3336 354C52.2669 353.333 52.4002 352.533 53.4669 351.2C56.1336 347.867 53.7336 342.667 48.2669 340.4C44.4002 338.8 40.5336 338.533 29.7336 339.2C14.2669 340.267 2.66692 338.4 7.33358 335.6C9.06691 334.533 17.7336 334 31.0669 333.867C49.4669 333.733 52.0002 334 52.0002 335.867C52.0002 338.8 58.4002 350.933 61.0669 352.933C62.1336 353.867 63.6002 354.267 64.1336 353.867C66.2669 352.533 65.3336 349.067 61.4669 344.133C59.3336 341.467 57.0669 337.2 56.4002 334.667C55.4669 331.067 54.2669 329.867 50.0002 328.4C47.0669 327.467 43.4669 325.333 42.0002 323.867L39.3336 321.067L49.3336 321.6C55.6002 322 61.7336 323.333 66.0002 325.2ZM44.4002 345.467C47.2002 346.133 49.0669 347.333 48.6669 348C47.3336 350.267 38.9336 350.933 34.0002 349.333C30.1336 348 29.4669 347.467 30.8002 345.867C32.6669 343.6 37.4669 343.467 44.4002 345.467ZM49.3336 358.267C49.3336 364.133 35.3336 363.467 32.1336 357.6C30.8002 355.2 31.3336 355.067 40.0002 355.2C48.6669 355.333 49.3336 355.6 49.3336 358.267ZM52.6669 369.333C52.6669 371.733 47.0669 372.667 40.4002 371.333C34.5336 370.267 34.8002 368.267 41.0669 367.6C49.3336 366.667 52.6669 367.2 52.6669 369.333Z" fill="#E7222A"/>
<path d="M247.467 30.2667C247.067 30.6667 246.667 33.4667 246.667 36.2667C246.667 40.2667 245.6 42.5334 241.734 46.8C233.734 55.6 226.134 58.2667 220.534 54C217.2 51.4667 214.667 51.4667 214.667 54C214.667 56.6667 219.734 59.7334 226 60.6667C230.534 61.4667 232.134 60.9334 236.934 57.4667C245.6 51.2 250.667 43.4667 250.667 36.5334C250.667 31.0667 249.334 28.4 247.467 30.2667Z" fill="#E7222A"/>
<path d="M213.867 146.133C211.334 147.333 208.8 150.267 207.334 153.467C202.534 164.133 209.6 174.667 221.6 174.667C229.2 174.667 232.134 171.6 233.067 162.667C233.734 155.467 231.734 150.933 226.267 147.467C221.334 144.267 218.134 144 213.867 146.133ZM223.467 156.667C226.4 161.2 225.067 166.667 220.934 166.667C219.2 166.667 217.2 166 216.267 165.067C213.867 162.667 214.267 156.4 217.067 154.8C220.4 152.8 221.067 152.933 223.467 156.667Z" fill="#E7222A"/>
<path d="M182.134 193.6C182.667 195.333 184.134 198.133 185.467 199.867C191.334 207.333 186.267 222.533 176 227.6C172.8 229.333 167.734 230.667 164.8 230.667C154.134 230.667 148.4 219.733 154.667 211.6C157.334 208.267 158.267 202.667 156.267 202.667C154.134 202.667 147.734 214 147.067 218.667C145.867 228.4 154.8 236 167.067 236C175.467 236 180.4 233.867 184.934 228.267C195.6 214.933 196.667 203.2 188 194.4C183.334 189.867 180.8 189.467 182.134 193.6Z" fill="#E7222A"/>
<path d="M219.334 209.467C213.6 218.133 194.4 237.333 184.934 243.867C181.734 246 175.467 249.733 170.934 252C161.734 256.667 160.134 260 167.067 260C169.467 260 172.134 260.667 172.934 261.467C173.734 262.267 181.2 265.867 189.467 269.467C207.734 277.6 215.734 278.8 224.267 275.067C229.467 272.667 230.4 271.6 232 266.133C233.467 260.8 233.334 257.467 231.2 242.933C229.867 233.6 228.8 221.2 228.667 215.333C228.534 205.2 227.734 201.333 225.6 201.333C225.067 201.333 222.267 205.067 219.334 209.467ZM222.667 255.733C222 259.867 220.8 263.733 220.134 264.4C216.934 267.6 206 266.933 194 262.933C187.334 260.667 180.8 258.667 179.467 258.4C177.6 258.133 179.2 256.533 185.467 252.4C196.934 245.067 208.934 234.4 216.8 224.8L223.334 216.933L223.734 232.533C223.867 241.2 223.467 251.6 222.667 255.733Z" fill="#E7222A"/>
<path d="M119.067 214.4C117.467 214.667 114.667 216.267 112.8 218C108.267 222.133 108.133 229.733 112.4 236.133C116.8 242.667 121.067 244.4 127.467 242.4C133.333 240.4 136 236.267 136 228.8C136 224.667 135.2 222.933 131.2 219.333C126.133 214.667 123.733 213.6 119.067 214.4ZM125.6 224.933C128.8 227.733 128.667 232.933 125.333 234.667C123.333 235.733 122.133 235.467 120 233.333C116.933 230.267 116.8 228.933 118.667 225.2C120.4 222.133 122.4 222 125.6 224.933Z" fill="#E7222A"/>
<path d="M660 95.5999C653.067 98.2666 605.334 120.667 585.067 130.8C530 158.267 454.667 205.6 454.667 212.667C454.667 216.267 459.6 214.667 468.267 208.267C476.134 202.533 498.534 187.067 512.667 177.867C545.6 156.133 611.2 122.667 652.4 106.533C664.267 102 668.8 98.1332 665.2 95.8666C663.067 94.5332 662.8 94.5332 660 95.5999Z" fill="#E7222A"/>
<path d="M616.667 156.533C587.867 170.4 547.2 194.133 502.134 223.6C476 240.667 471.334 244.667 475.467 246.267C476.667 246.667 478.4 246.533 479.334 245.867C501.467 230.267 563.6 192 598.667 172.667C607.867 167.6 620.134 161.867 625.867 159.867C631.734 157.867 636.8 155.6 637.067 154.667C637.6 153.067 633.867 149.2 632.134 149.333C631.734 149.467 624.8 152.667 616.667 156.533Z" fill="#E7222A"/>
</g>
<defs>
<clipPath id="clip0_91_4">
<rect width="666.667" height="584" fill="white"/>
</clipPath>
</defs>
</svg>
