<svg width="570" height="550" viewBox="0 0 570 550" fill="none" xmlns="http://www.w3.org/2000/svg">
<path d="M303.147 1.86711C293.814 5.86711 288.347 17.3338 289.947 29.0671C290.481 33.7338 290.214 36.6671 288.614 39.6004C285.147 46.4004 283.281 46.0004 274.214 36.4004C260.614 22.2671 247.814 18.2671 231.414 23.2004C224.614 25.2004 224.481 25.2004 223.147 19.0671C222.214 14.5338 214.747 6.80044 210.747 6.40044C209.547 6.26711 201.414 6.13377 192.881 6.00044C175.281 6.00044 174.081 6.80044 181.281 13.4671L185.414 17.3338H180.614C174.347 17.3338 174.347 19.7338 180.881 26.9338C184.347 30.8004 185.014 32.1338 183.147 31.4671C171.947 27.0671 171.014 27.2004 172.347 32.6671C173.681 37.7338 182.614 46.9338 190.614 51.2004C196.347 54.4004 198.481 54.9338 205.281 54.4004C213.947 53.7338 219.414 50.0004 222.481 42.5338C224.347 38.0004 226.881 37.7338 232.747 41.3338C235.947 43.2004 237.547 45.6004 239.147 50.9338C241.947 60.2671 244.214 75.6004 243.147 77.3338C242.747 78.1338 237.414 82.6671 231.414 87.4671L220.481 96.4004L219.681 90.6671C218.881 84.4004 215.814 81.2004 211.814 82.2671C208.481 83.2004 206.481 85.6004 204.481 91.6004C202.747 96.4004 202.481 96.6671 196.881 96.6671C191.681 96.8004 189.947 97.7338 183.281 103.334C168.214 116.4 166.347 122 172.214 137.867C174.614 144.267 175.947 146 178.747 146.8C180.747 147.334 183.947 148.934 185.814 150.4C189.014 152.934 189.147 153.2 189.547 178.134C190.214 207.6 191.814 215.067 199.681 222.8C205.414 228.667 221.414 234.134 245.147 238.667C264.214 242.267 268.347 244 271.147 249.2C276.214 259.2 274.481 281.067 267.281 296.8C264.081 303.867 263.814 304 258.214 304C250.214 304 240.081 309.2 233.681 316.4C228.614 322.134 212.614 347.067 204.347 362.267C202.214 366.134 200.081 369.334 199.547 369.334C199.147 369.334 198.347 367.6 197.814 365.467C196.481 358.934 188.614 351.334 178.481 346.534C170.081 342.4 167.014 340 170.481 340C172.347 340 178.481 328.8 178.481 325.2C178.481 323.467 177.281 319.6 175.947 316.534C167.947 298.934 143.681 298.934 135.681 316.534C134.347 319.6 133.147 323.734 133.147 326C133.014 329.467 132.081 330.4 126.081 333.334C117.947 337.334 110.214 346.667 107.014 356.534C101.814 372 108.214 392.267 121.681 402.934C125.281 405.734 129.147 408 130.214 407.734C131.681 407.467 132.881 404.267 134.081 397.467C135.947 387.6 141.814 374 145.681 370.667C146.881 369.734 148.081 369.2 148.347 369.467C148.614 369.734 151.814 376.667 155.414 384.8C159.014 392.934 164.881 404 168.481 409.334C183.281 431.6 191.281 434.4 211.147 424.4C227.414 416.134 253.414 398.4 265.147 387.467L270.081 382.934L277.014 390.8C288.081 403.334 307.414 411.334 337.547 416.134L347.947 417.734L342.081 423.867C334.214 432 333.014 434.534 332.214 446C331.147 458.934 335.547 486.4 340.481 499.067C341.281 500.934 340.614 501.334 336.614 501.334C330.481 501.334 325.681 503.734 320.347 509.6C312.747 517.6 311.147 528.4 315.947 538.267C320.481 547.734 323.681 549.334 337.281 549.334C347.814 549.334 349.281 549.067 353.014 545.867L357.014 542.534L362.881 545.867C368.214 549.067 369.947 549.334 384.747 549.334C400.214 549.334 400.881 549.2 406.747 545.334C418.081 537.867 423.814 525.6 423.814 509.334C423.814 500.934 421.281 489.734 418.614 485.467C417.547 483.867 416.214 484.534 411.147 488.8C397.814 500 382.081 507.467 373.947 506.4L370.747 506L378.481 486.934C392.481 453.067 401.014 422.934 401.147 407.867V400.267L387.681 387.467C380.214 380.4 366.214 368.534 356.347 361.2L338.481 347.6L351.014 335.867C360.614 326.8 373.681 310.534 376.614 304.267C376.747 304.134 382.481 305.334 389.414 307.2C420.881 315.334 456.214 314.534 480.081 305.2L486.347 302.8L493.547 306.534C497.547 308.667 504.214 310.8 508.347 311.2C512.481 311.734 517.547 313.067 519.547 314.134C523.814 316.4 528.614 316.534 534.214 314.534C537.281 313.467 538.747 311.867 539.947 308.267C540.747 305.6 542.347 302.267 543.414 301.067C544.614 299.867 545.414 296.4 545.414 293.467C545.281 287.067 547.814 284.667 555.814 283.334C565.281 281.734 569.147 279.334 569.147 274.667C569.147 268.534 563.281 266.134 548.481 265.867L536.481 265.734L536.881 261.734C537.547 255.6 534.747 254.134 523.414 255.067C511.947 255.867 504.481 258.667 494.347 265.6L486.881 270.667L467.681 268.667C457.147 267.467 443.147 265.6 436.481 264.534C425.014 262.667 400.481 256.534 397.947 254.934C397.281 254.534 401.281 252.667 406.881 250.667C453.281 234.267 479.414 184.134 467.014 134.934C465.947 130.8 462.347 121.734 459.014 114.934C448.081 92.5338 428.081 75.2004 402.747 66.1338C391.947 62.2671 389.947 62.0004 373.147 62.0004C354.214 62.0004 350.881 62.5338 325.814 70.0004C303.947 76.4004 303.414 76.5338 299.547 72.2671C297.681 70.2671 295.147 67.0671 293.814 65.0671C291.547 61.4671 291.547 61.4671 296.081 58.6671C301.547 55.3338 302.881 55.3338 312.614 58.8004C328.214 64.2671 340.747 60.5338 346.347 48.9338C356.214 28.6671 337.014 -0.132894 313.947 0.000439286C310.214 0.133773 305.281 0.933773 303.147 1.86711ZM325.147 9.46711C332.347 13.8671 335.814 17.4671 339.414 24.5338C345.547 36.6671 342.881 48.8004 332.881 53.7338C328.081 56.1338 327.547 56.1338 319.547 53.8671C307.414 50.5338 299.547 50.1338 294.881 52.4004C291.147 54.4004 248.081 87.4671 232.614 100.4C228.214 104 222.747 107.867 220.347 108.934C218.081 110.134 214.747 113.334 213.147 116.134C211.681 119.067 209.547 121.334 208.614 121.334C207.681 121.334 204.614 123.067 201.814 125.334C199.014 127.467 196.614 129.334 196.481 129.334C196.347 129.334 196.347 128.134 196.481 126.534C196.614 125.067 198.081 123.067 199.947 122.267C201.681 121.334 203.681 119.334 204.481 117.6C205.147 116 206.614 114.667 207.547 114.667C208.481 114.667 212.481 111.734 216.214 108.267C220.081 104.667 229.414 96.8004 237.147 90.6671C268.081 65.8671 294.214 44.0004 295.014 41.8671C295.414 40.8004 295.814 35.3338 295.814 29.8671C295.814 18.8004 297.681 13.8671 303.281 9.46711C308.081 5.60044 318.747 5.60044 325.147 9.46711ZM403.814 90.8004C440.881 101.6 464.481 142.134 456.614 181.467C451.547 206.4 436.214 226.667 414.347 237.067C401.681 243.2 392.747 245.334 380.747 245.334C347.547 245.2 318.481 222.534 308.347 188.667C304.747 176.667 305.014 156.8 309.014 144C321.947 101.867 363.147 78.8004 403.814 90.8004ZM212.614 99.4671C211.547 102.134 209.147 101.734 209.147 98.8004C209.147 97.4671 209.947 94.4004 210.881 91.8671L212.481 87.3338L212.881 92.5338C213.147 95.3338 213.014 98.4004 212.614 99.4671ZM248.881 103.467C253.281 119.867 263.814 134 278.481 143.467C282.881 146.4 286.481 149.6 286.481 150.667C286.614 163.2 291.414 185.467 296.481 197.734C297.414 199.867 296.614 199.734 290.747 196.8C279.681 191.2 269.681 189.067 249.281 188.267L229.947 187.334L227.814 177.334C226.614 171.867 224.214 163.067 222.481 157.867L219.414 148.4L222.881 141.2C224.881 137.334 226.481 133.334 226.481 132.4C226.481 131.467 227.414 128 228.614 124.534C229.681 121.2 230.747 116.667 230.747 114.534C230.881 111.467 232.614 109.067 238.347 104C242.481 100.267 246.081 97.3338 246.481 97.3338C246.881 97.3338 247.947 100.134 248.881 103.467ZM202.747 104.8C205.681 106.267 206.347 107.334 205.281 108.4C204.214 109.467 202.614 109.2 199.147 107.6C196.481 106.4 193.414 105.334 192.347 105.334C191.281 105.334 190.747 104.667 191.147 104C192.347 102 198.081 102.4 202.747 104.8ZM193.814 112.534C199.014 114.8 199.147 115.067 197.014 118.934L195.547 121.6L192.747 118.934C191.147 117.467 187.414 115.734 184.614 115.2C179.814 114.4 179.547 114.134 181.814 112.534C185.014 110.134 188.081 110.134 193.814 112.534ZM225.147 115.467C225.147 115.867 224.481 117.334 223.681 118.8C222.881 120.267 221.414 124.8 220.347 128.8C217.681 139.334 215.414 142 207.281 144.534C199.547 146.934 190.347 146.934 189.547 144.534C189.147 143.2 207.547 128 209.681 128C210.081 128 210.481 129.2 210.481 130.8C210.481 132.667 211.147 133.334 212.747 133.067C214.347 132.8 215.547 130.4 216.614 125.6C217.547 121.734 218.881 117.734 219.814 116.667C221.414 114.8 225.147 113.867 225.147 115.467ZM187.014 122.134C188.214 122.534 189.147 123.867 189.147 124.934C189.147 126.534 188.081 126.8 184.347 126.134C180.214 125.334 179.547 125.6 178.881 127.867C178.481 129.467 177.681 130.667 177.147 130.667C175.814 130.667 174.214 124.267 175.147 122.667C176.081 121.2 183.814 120.934 187.014 122.134ZM186.481 136.667C183.681 139.734 179.814 141.2 179.814 139.2C179.814 136.4 183.014 133.334 186.081 133.334H189.547L186.481 136.667ZM527.814 263.334C526.747 264.267 523.414 266 520.614 266.934C516.214 268.4 515.147 269.467 513.814 274C512.881 276.934 510.881 281.6 509.281 284.267C506.881 288.134 506.614 289.734 507.681 291.867C509.547 295.2 512.214 294.267 514.347 289.6C517.681 282.4 519.147 291.334 516.214 301.6C514.881 306.534 497.014 303.067 491.947 296.934C489.014 293.334 490.747 282.134 495.281 275.6C500.881 267.734 513.281 262 526.481 261.467C529.281 261.334 529.414 261.6 527.814 263.334ZM557.814 273.2C565.147 274.8 558.881 276.267 541.414 276.934C532.081 277.334 523.414 278.267 522.214 278.934C520.214 279.867 519.814 279.467 519.814 276.8C519.814 273.2 518.081 273.334 549.814 272.4C552.081 272.4 555.681 272.667 557.814 273.2ZM539.281 285.2C538.214 286.8 528.347 288.534 526.481 287.334C523.681 285.6 526.881 284 533.281 284C537.014 284 539.681 284.534 539.281 285.2ZM537.147 296.667C535.147 299.067 524.214 299.067 524.747 296.667C525.014 295.467 536.881 293.467 538.347 294.267C538.614 294.4 538.081 295.6 537.147 296.667ZM533.147 306.667C533.147 307.334 530.747 308 527.947 308C525.014 308 522.214 307.334 521.814 306.667C521.281 305.867 523.414 305.334 527.014 305.334C530.347 305.334 533.147 305.867 533.147 306.667Z" fill="#E7222A"/>
<path d="M302.48 27.6006C302.48 34.934 307.947 43.2006 315.28 46.6673C320.614 49.334 322.08 49.4673 326.48 48.134C332.214 46.4006 335.547 43.2006 333.547 41.2006C332.747 40.4006 330.747 40.6673 328.08 42.134C324.614 43.734 322.88 43.8673 319.28 42.6673C312.347 40.4006 306.48 32.8006 306.48 26.134C306.48 24.0006 305.68 22.6673 304.48 22.6673C303.014 22.6673 302.48 24.134 302.48 27.6006Z" fill="#E7222A"/>
<path d="M336.481 123.067C334.215 124.934 332.748 127.867 332.215 131.467C331.681 135.867 332.081 137.467 335.148 141.067C338.215 144.667 339.681 145.334 344.481 145.334C349.148 145.334 350.881 144.667 353.014 141.734C356.881 136.934 357.814 132.667 355.814 127.867C352.348 119.734 343.014 117.334 336.481 123.067ZM347.281 131.334C348.348 134 345.548 137.334 343.015 136.4C341.948 136 341.148 134.267 341.148 132.534C341.148 130.267 341.948 129.334 343.815 129.334C345.281 129.334 346.881 130.267 347.281 131.334Z" fill="#E7222A"/>
<path d="M378.746 151.601C376.213 152.534 373.146 159.334 373.146 164.001C373.146 172.267 380.346 180.934 389.813 184.001C400.613 187.601 413.546 181.734 415.28 172.667C416.346 166.934 415.146 163.601 410.213 157.867C403.813 150.667 400.88 155.467 407.146 162.934C411.28 167.867 411.413 171.201 407.146 175.334C404.48 178.134 402.613 178.667 396.613 178.667C390.213 178.667 388.746 178.134 384.613 174.267C378.613 168.667 377.413 163.867 380.346 157.601C382.613 152.934 381.946 150.401 378.746 151.601Z" fill="#E7222A"/>
<path d="M430.213 159.334C422.88 163.334 422.747 175.867 429.813 180.534C438.347 186.134 447.813 180.667 447.813 170C447.813 159.6 439.28 154.4 430.213 159.334ZM439.547 170.534C439.013 175.2 434.08 175.467 433.413 170.8C432.88 167.334 435.147 165.2 438.08 166.267C439.147 166.667 439.813 168.4 439.547 170.534Z" fill="#E7222A"/>
<path d="M344.348 168.667C343.948 169.734 344.215 172.534 345.015 174.934C345.815 177.334 347.015 186.267 347.815 194.667C348.481 203.067 349.815 212.8 350.615 216.4C354.348 232.4 367.815 231.734 391.414 214.4C397.948 209.6 404.614 205.334 406.214 204.8C412.081 202.934 408.881 199.867 397.414 196.534C391.281 194.8 383.814 192 380.748 190.534C371.948 186 358.081 176.4 353.148 171.334C348.348 166.4 345.548 165.467 344.348 168.667ZM367.815 191.6C373.281 195.2 381.681 199.334 386.348 200.934L394.881 203.734L387.281 208.667C372.615 218 364.215 219.867 360.481 214.267C358.615 211.334 354.481 196.934 352.615 186.134L351.548 180.934L354.748 183.067C356.481 184.267 362.348 188.134 367.815 191.6Z" fill="#E7222A"/>
<path d="M0.0805342 141.601C0.347201 144.134 2.61387 145.334 13.1472 148.934C73.8139 169.601 106.481 184.667 148.481 211.467C167.547 223.467 173.147 225.867 173.147 221.867C173.014 218.934 171.947 218.001 151.414 205.467C110.881 180.801 77.5472 165.067 24.7472 145.867C2.48053 137.734 -0.586133 137.201 0.0805342 141.601Z" fill="#E7222A"/>
<path d="M23.014 181.467C21.6807 183.734 25.014 186.001 34.4807 189.201C65.9473 200.267 109.814 222.667 156.881 252.001C179.547 266.267 185.147 268.667 185.147 264.801C185.147 262.934 179.414 258.934 154.481 243.067C124.214 223.867 80.0807 200.934 47.6807 187.467C29.2807 179.867 24.7473 178.801 23.014 181.467Z" fill="#E7222A"/>
<path d="M55.8145 226.267C55.8145 228.401 59.1478 230.401 71.5478 236.001C89.5478 244.134 115.681 257.867 140.481 272.534C149.948 278.134 158.214 282.667 158.748 282.667C161.414 282.667 161.281 279.334 158.348 276.934C145.681 266.667 72.0811 227.734 59.5478 224.667C56.4811 223.867 55.8145 224.134 55.8145 226.267Z" fill="#E7222A"/>
</svg>
