<svg width="331" height="690" viewBox="0 0 331 690" fill="none" xmlns="http://www.w3.org/2000/svg">
<path d="M272.267 1.06673C272 1.60006 272.267 28.9334 272.8 61.8667C273.867 116 274.933 130 277.2 121.867C277.6 120.4 278.4 92.5334 278.8 59.6001L279.733 5.86367e-05H276.4C274.533 5.86367e-05 272.667 0.400059 272.267 1.06673Z" fill="#E7222A"/>
<path d="M325.067 38.5334C321.2 40.9334 291.467 119.467 291.467 127.333C291.467 131.333 294.667 128.667 297.067 122.533C298.267 119.333 302.133 109.467 305.6 100.667C309.067 91.8667 316.267 74.8 321.733 62.9334C329.467 45.7334 331.2 40.6667 330 39.2C328.267 37.0667 327.467 36.9334 325.067 38.5334Z" fill="#E7222A"/>
<path d="M220.799 41.0666C220.799 42.3999 225.465 53.9999 231.199 66.7999C237.065 79.5999 245.199 98.7999 249.465 109.6C256.799 128.4 259.465 132.933 259.465 126.267C259.465 120.4 241.199 69.5999 231.199 47.5999C227.865 40.2666 226.532 38.6666 223.999 38.6666C221.732 38.6666 220.799 39.4666 220.799 41.0666Z" fill="#E7222A"/>
<path d="M270 145.6C268.933 147.467 268.133 156.933 267.733 169.6C267.066 190.4 267.066 190.667 263.466 194.533C261.466 196.667 259.333 200.267 258.8 202.533C257.466 208.667 261.333 220.133 267.333 227.733L272.666 234.4L265.2 258.133C261.066 271.333 257.066 284.267 256.266 287.067L254.666 292.267L252.266 281.467C248.533 264.133 241.066 250.667 227.6 237.333C215.466 225.2 206.8 219.867 190.8 214.533C182.533 211.733 179.066 211.333 162.133 211.467C145.066 211.467 141.333 212 131.066 215.067C99.0665 224.933 64.9331 249.333 47.5998 275.2C29.5998 301.867 22.6665 327.067 24.3998 360.267L25.1998 374.667H20.5331C14.5331 374.667 7.59979 379.333 3.73312 386C1.06645 390.8 0.799787 392.933 1.06645 405.333C1.19979 413.067 0.93312 420.667 0.266453 422.267C-1.20021 426.933 3.59979 426.267 9.46645 421.2L14.1331 417.067V424.533C14.1331 428.933 14.6665 432 15.5998 432C16.2665 432 19.9998 428.933 23.5998 425.067L30.2665 418.133L29.3331 425.733C28.5331 432.4 28.6665 433.333 30.7998 433.333C34.2665 433.333 48.6665 417.867 52.2665 410.133C54.3998 405.6 55.4665 400.933 55.4665 396.133C55.4665 389.733 55.0665 388.533 50.3998 384C47.7331 381.333 44.6665 378.8 43.7331 378.533C42.3998 378.133 43.0665 375.467 46.2665 368C54.3998 348.933 64.1331 338.667 77.0665 335.467C80.3998 334.667 80.9331 335.2 85.9998 344.933C92.5331 357.467 99.5998 365.867 110.133 373.733L118 379.733L110.666 384.667C88.6665 399.867 70.9331 430.933 69.1998 457.333C67.7331 477.2 70.9331 484.933 82.3998 490.4C90.9331 494.267 106.4 497.467 121.866 498.267C135.066 499.067 135.733 499.2 135.066 501.867C134.666 503.467 132.8 511.2 130.933 519.333C129.066 527.333 127.466 535.467 127.466 537.333C127.466 539.2 121.066 550.933 112.266 565.067C103.866 578.533 96.2665 591.6 95.4665 594.133C93.4665 600.133 94.6665 604.667 98.9331 607.467C104.533 611.2 109.866 607.6 117.866 594.667L124.666 583.733L125.333 588.133C128.533 610.4 133.066 639.867 133.733 642.267C134.533 646 128.533 649.333 118.8 650.267C112.8 650.933 110.8 650.533 105.866 647.6C102.666 645.733 98.6665 641.867 96.7998 638.667C89.1998 626.133 89.5998 626.133 84.5331 636.667C80.6665 644.933 80.1331 647.2 80.1331 657.333C80.1331 667.333 80.5331 669.467 83.8665 675.067C85.8665 678.533 90.1331 683.067 93.0665 685.067C98.1331 688.267 99.7331 688.667 110.666 688.667C121.866 688.667 123.333 688.267 130.266 684.4L137.733 680.133L140.533 682.933C144.266 686.8 156.133 687.733 161.866 684.8C173.066 679.067 173.6 657.333 162.8 648.4L158.4 644.667L162.266 635.2C170.533 614.533 171.733 604.133 167.6 590.533L164.933 582.267L170.666 570.8C173.733 564.533 177.733 555.867 179.466 551.6C183.066 542.667 183.733 543.067 186.133 556.533C187.066 561.733 188.933 569.467 190.266 573.733C192.666 581.6 192.666 581.867 190 585.467C185.733 591.467 183.333 600.133 183.333 609.467C183.333 618.8 183.733 621.2 187.733 635.2L190.4 644.267L185.733 648.133C175.866 656.267 173.866 673.6 181.733 681.6C188.266 688 201.733 688.533 207.2 682.533L209.733 679.867L216.666 684.133C222.266 687.6 225.2 688.533 233.333 689.067C244.8 689.733 251.2 688 257.6 682.267C265.466 675.467 268.133 668.933 268 656.667C268 647.6 267.466 644.8 264.133 638C261.866 633.733 259.466 629.867 258.533 629.6C257.733 629.333 256 631.2 254.666 633.6C251.866 639.2 245.2 646.267 240.533 648.8C234.4 652 219.2 650.4 215.6 646.133C214.533 644.933 215.6 639.867 219.6 626.533C232.133 585.067 235.2 560.8 232.8 522.133C232 509.6 231.066 498.533 230.8 497.6C230.4 496.667 232 489.733 234.133 482.267C238.8 466.933 244.133 439.2 245.466 423.6C246.533 412.533 246.4 412.8 259.2 397.6C279.066 373.867 296 338.533 300.666 310.533C304.533 287.6 305.2 272.8 303.466 254.133L301.866 237.333L306.666 231.733C309.333 228.667 312.133 223.733 312.8 220.8C313.466 217.733 314.8 213.467 315.6 211.333C320.8 197.067 320.4 190.667 314 186.8C311.733 185.467 309.066 183.067 308 181.6C306.933 180 304 178.4 301.466 177.867C298.933 177.467 296.266 176.267 295.333 175.2C294.533 174.133 292.133 173.333 290 173.333C286.266 173.333 286.133 173.067 286.133 167.467C286.133 158.8 283.733 147.867 281.2 145.067C278.133 141.6 272 142 270 145.6ZM279.466 158.133C280.266 162.4 280.8 170.667 280.8 176.4C280.8 186.267 280.666 186.8 277.333 188C275.466 188.8 273.6 189.333 273.2 189.333C272.266 189.333 274 150.533 275.066 148.933C276.4 146.667 278.266 150.267 279.466 158.133ZM292.8 181.2C293.466 182.667 294.133 186.133 294 188.933C294 193.467 293.866 193.6 292.666 190.933C292 189.2 290.266 187.467 288.8 187.067C286.266 186.4 285.066 181.467 287.066 179.6C288.666 177.867 291.333 178.667 292.8 181.2ZM303.2 184.267C307.333 188.4 303.333 204 298.133 204C294.933 204 294.933 204.4 297.466 197.333C298.533 194.267 299.466 189.6 299.466 187.2C299.466 182.4 300.533 181.6 303.2 184.267ZM287.466 193.733C287.466 196 282.666 200.4 277.2 203.2C271.6 206 271.6 208 277.2 208C282 208 284.666 210.133 287.6 216.667C288.666 218.8 290.133 220.4 290.8 220C293.066 218.933 291.866 211.867 288.933 207.867C287.333 205.733 286.666 204 287.466 204C288.133 204 288.8 204.533 288.8 205.333C288.8 206.933 296.266 210.933 298.533 210.533C299.333 210.267 302.133 211.333 304.4 212.8C309.466 215.733 309.333 217.6 303.6 226C300 231.333 300 231.333 290.533 231.733C281.2 232.133 280.8 232 275.6 227.333C269.066 221.333 264.8 212.933 264.8 205.733C264.8 199.467 266.133 198.133 275.066 194.667C282.666 191.6 287.466 191.333 287.466 193.733ZM313.333 194.133C315.2 199.067 309.6 210.533 306.666 207.733C305.866 206.8 310.533 192 311.6 192C312.133 192 312.933 192.933 313.333 194.133ZM185.466 228.667C210.133 233.867 230.933 251.467 239.466 274.533C250.933 305.067 244.133 338 221.6 360.667C206.133 376.133 189.2 383.333 168.133 383.067C122.666 382.667 88.6665 336.533 98.7998 288.8C104.933 259.733 129.066 234.8 157.2 228.667C168.133 226.267 174.133 226.267 185.466 228.667ZM219.066 396C227.866 401.333 233.733 415.333 232.133 426.533C230 440.667 220 452.133 204.8 458C196.133 461.333 191.466 465.067 186.933 472.133C185.333 474.667 183.866 475.467 182.133 475.067C178.8 474.133 178.8 474.133 183.2 466.8C186.666 460.8 186.8 460.133 186.8 440.667C186.8 421.067 186.933 420.533 190.933 412C198.933 395.333 208.8 389.733 219.066 396ZM133.466 451.733C135.466 457.867 136.8 463.067 136.533 463.467C136.133 463.733 131.866 462.133 127.066 459.867L118.133 455.733L121.6 448.933C125.866 440.4 127.6 438.267 128.8 439.6C129.333 440.133 131.466 445.6 133.466 451.733ZM176.8 465.733C176.8 466.8 175.6 468.667 174.133 470C172.666 471.333 171.466 472.933 171.466 473.467C171.466 475.333 177.733 478.8 182.8 480C186.8 480.933 188 480.667 190.266 478.267C192.933 475.333 193.066 475.333 194.933 477.867C198.666 483.067 196.666 487.2 189.333 489.2C184.8 490.4 183.466 493.333 187.466 493.333C191.6 493.333 190.4 497.867 186.133 498.4C181.6 499.067 180 500.8 182 503.2C183.333 504.8 183.2 505.467 180.933 506.533C179.466 507.333 177.066 508 175.6 508C172.533 508 170.8 510.133 172.8 511.333C175.466 512.933 172.4 514.933 168.4 514.133C156.533 511.733 143.733 498.267 145.6 490.133C147.466 481.333 151.333 474.8 156.666 471.333C165.866 465.2 176.8 462.133 176.8 465.733ZM155.333 514.533C156.4 515.2 156.8 516.667 156.4 517.867C154.8 521.867 109.733 596.4 106.8 599.733C104.933 601.867 103.066 602.8 101.733 602.267C99.7331 601.467 99.7331 600.933 101.466 596.133C102.533 593.2 106.8 585.2 111.066 578.4C145.466 523.867 152.266 513.333 152.8 513.333C153.2 513.333 154.266 513.867 155.333 514.533Z" fill="#E7222A"/>
<path d="M201.2 250C187.2 256 192.266 278.667 207.6 278.667C215.066 278.667 222.133 271.867 222.133 264.8C222.133 257.867 218.8 252.133 213.466 249.867C207.866 247.6 206.666 247.6 201.2 250ZM208.4 263.467C211.066 264.133 212.533 263.733 214.4 261.333L216.8 258.4V262.933C216.8 272 207.6 276.4 201.2 270.4C197.6 267.067 197.2 261.867 200.4 257.333L202.666 254.133L203.733 258.4C204.533 261.467 205.866 262.933 208.4 263.467Z" fill="#E7222A"/>
<path d="M119.467 271.867C109.067 282.133 115.2 298.667 129.333 298.667C136.4 298.667 141.333 295.2 143.467 288.667C148.267 274.133 130 261.333 119.467 271.867ZM126.667 276.533C126.133 279.067 126.667 280.267 129.2 281.867C132.4 284 136.8 283.6 136.8 281.2C136.8 280.533 137.467 280 138.133 280C140.8 280 139.467 286.8 136.133 290C128.133 298.133 116.133 289.067 121.467 278.8C123.067 275.6 124.533 274.267 127.2 273.467C127.333 273.333 127.2 274.8 126.667 276.533Z" fill="#E7222A"/>
<path d="M177.466 282.667C178.933 284.267 181.599 285.333 184.399 285.333C189.599 285.333 194.133 289.2 194.133 294C194.133 298.4 187.066 306.133 181.333 308C172.133 311.067 161.866 306.4 159.733 298.267C159.066 295.867 158.133 294 157.333 294C155.199 294 155.199 302.8 157.466 306.267C159.999 310 169.066 314.533 174.133 314.667C184.533 314.667 195.733 307.467 198.266 298.8C201.466 288.133 193.733 280 180.666 280C175.199 280 175.066 280 177.466 282.667Z" fill="#E7222A"/>
<path d="M206.133 316.667C204.266 317.733 198.666 320 193.466 321.6C181.466 325.467 158 325.733 145.066 322.267C140.533 320.933 136.133 320.267 135.466 320.667C133.466 321.867 133.866 326.667 135.866 327.467C136.8 327.733 142.533 334.133 148.666 341.333C163.733 359.733 174.4 366.4 184 363.867C191.466 361.733 195.2 356.4 202.8 335.867C205.2 329.467 208.4 322.533 210 320.533C214.666 314.667 212.933 312.8 206.133 316.667ZM196.8 331.2C194.133 338.4 188.4 348.533 185.466 351.467C181.466 355.467 178.266 355.467 171.066 351.867C166 349.2 148.8 334 148.8 332.133C148.8 331.733 157.6 331.333 168.533 331.2C179.6 331.2 189.6 330.4 191.466 329.6C196.933 327.2 198.266 327.6 196.8 331.2Z" fill="#E7222A"/>
<path d="M207.866 399.6C205.066 400.667 205.999 402.667 209.199 402.667C220.266 402.667 221.066 428.8 210.399 441.467C204.132 448.933 198.932 448.933 194.266 441.2C191.332 436.4 189.466 438.133 191.599 443.6C193.866 449.467 196.799 452 201.732 452C210.666 452 220.532 438.8 222.799 423.733C225.199 408 217.466 395.6 207.866 399.6Z" fill="#E7222A"/>
</svg>
